<svg xmlns="http://www.w3.org/2000/svg" viewBox="0 0 900 360"><rect width="900" height="360" rx="18" fill="#0b0b0b"/><text x="32" y="45" fill="#eee" font-family="Arial" font-size="20" font-weight="700">Gold × S&amp;P 500</text><text x="32" y="68" fill="#666" font-family="Arial" font-size="12">Inflation &amp; asset price analysis</text><rect x="32" y="92" width="836" height="220" rx="12" fill="#101010" stroke="#252525"/><path d="M55 260 C130 230 150 245 205 190 S310 220 370 155 S480 180 540 125 S650 165 715 110 S790 135 845 85" fill="none" stroke="#e8ff64" stroke-width="4"/><path d="M55 285 C130 275 165 250 225 265 S320 225 380 245 S480 205 545 230 S640 190 710 210 S790 175 845 190" fill="none" stroke="#888" stroke-width="3"/><line x1="55" y1="260" x2="845" y2="260" stroke="#242424"/><text x="60" y="295" fill="#555" font-family="Arial" font-size="11">2008</text><text x="420" y="295" fill="#555" font-family="Arial" font-size="11">2016</text><text x="800" y="295" fill="#555" font-family="Arial" font-size="11">2025</text><rect x="670" y="105" width="160" height="58" rx="8" fill="#151515"/><text x="685" y="128" fill="#777" font-family="Arial" font-size="11">MODELS</text><text x="685" y="149" fill="#eee" font-family="Arial" font-size="13">GARCH · VAR · IRF</text></svg>